<svg width="100%" viewBox="0 0 218 47" fill="none" xmlns="http://www.w3.org/2000/svg">
<path d="M25.8242 37.2578V31.5156L7.89453 24.6016L6.3418 24.0742L7.89453 23.5762L25.8242 16.5449V10.8027L0.980469 21.877V26.1543L25.8242 37.2578ZM69.0552 13.06C75.5352 13.06 78.7752 16.92 78.7752 24.64V40.9C78.7752 41.66 78.5552 42.26 78.1152 42.7C77.6752 43.1 77.0952 43.3 76.3752 43.3C75.6552 43.3 75.0552 43.1 74.5752 42.7C74.1352 42.26 73.9152 41.66 73.9152 40.9V24.76C73.9152 22.08 73.4352 20.14 72.4752 18.94C71.5152 17.74 70.0152 17.14 67.9752 17.14C65.5352 17.14 63.6152 17.96 62.2152 19.6C60.8152 21.24 60.1152 23.46 60.1152 26.26V40.9C60.1152 41.66 59.8752 42.26 59.3952 42.7C58.9552 43.1 58.3752 43.3 57.6552 43.3C56.9352 43.3 56.3552 43.1 55.9152 42.7C55.4752 42.26 55.2552 41.66 55.2552 40.9V24.76C55.2552 22.08 54.7752 20.14 53.8152 18.94C52.8552 17.74 51.3352 17.14 49.2552 17.14C46.8552 17.14 44.9352 17.96 43.4952 19.6C42.0952 21.24 41.3952 23.46 41.3952 26.26V40.9C41.3952 41.66 41.1752 42.26 40.7352 42.7C40.2952 43.1 39.7152 43.3 38.9952 43.3C38.2752 43.3 37.6752 43.1 37.1952 42.7C36.7552 42.26 36.5352 41.66 36.5352 40.9V15.58C36.5352 14.86 36.7552 14.28 37.1952 13.84C37.6752 13.4 38.2752 13.18 38.9952 13.18C39.6752 13.18 40.2352 13.4 40.6752 13.84C41.1152 14.24 41.3352 14.8 41.3352 15.52V18.4C42.2152 16.68 43.4352 15.36 44.9952 14.44C46.5552 13.52 48.3552 13.06 50.3952 13.06C54.9552 13.06 57.9352 14.98 59.3352 18.82C60.1752 17.06 61.4552 15.66 63.1752 14.62C64.8952 13.58 66.8552 13.06 69.0552 13.06ZM110.249 36.22C110.689 36.22 111.069 36.4 111.389 36.76C111.709 37.12 111.869 37.58 111.869 38.14C111.869 39.14 111.169 40.06 109.769 40.9C108.329 41.74 106.809 42.38 105.209 42.82C103.609 43.22 102.049 43.42 100.529 43.42C96.0089 43.42 92.4289 42.08 89.7889 39.4C87.1889 36.72 85.8889 33.02 85.8889 28.3C85.8889 25.3 86.4689 22.66 87.6289 20.38C88.7889 18.06 90.4089 16.26 92.4889 14.98C94.6089 13.7 97.0089 13.06 99.6889 13.06C103.489 13.06 106.509 14.3 108.749 16.78C110.989 19.26 112.109 22.62 112.109 26.86C112.109 27.66 111.949 28.24 111.629 28.6C111.309 28.96 110.789 29.14 110.069 29.14H90.7489C91.1089 36.02 94.3689 39.46 100.529 39.46C102.089 39.46 103.429 39.26 104.549 38.86C105.669 38.42 106.869 37.84 108.149 37.12C109.189 36.52 109.889 36.22 110.249 36.22ZM99.7489 16.84C97.1889 16.84 95.1289 17.64 93.5689 19.24C92.0489 20.84 91.1489 23.1 90.8689 26.02H107.849C107.769 23.06 107.029 20.8 105.629 19.24C104.229 17.64 102.269 16.84 99.7489 16.84ZM163.051 46.6621L180.834 0.34375H176L158.188 46.6621H163.051ZM192.055 37.2285L217.924 26.125V21.8477L192.055 10.7734V16.3691L211.01 23.4004L212.768 23.957L211.01 24.4551L192.055 31.6035V37.2285Z" fill="#7067DF"/>
</svg>
